<svg width="40" height="40" viewBox="0 0 40 40" fill="none" xmlns="http://www.w3.org/2000/svg">
<rect width="40" height="40" fill="#3F5BA8"/>
<path d="M27.3536 33.3536C27.5488 33.1583 27.5488 32.8417 27.3536 32.6464L24.1716 29.4645C23.9763 29.2692 23.6597 29.2692 23.4645 29.4645C23.2692 29.6597 23.2692 29.9763 23.4645 30.1716L26.2929 33L23.4645 35.8284C23.2692 36.0237 23.2692 36.3403 23.4645 36.5355C23.6597 36.7308 23.9763 36.7308 24.1716 36.5355L27.3536 33.3536ZM14 33.5H27V32.5H14V33.5Z" fill="white"/>
<rect x="10" y="6" width="3" height="15.4545" fill="white"/>
<rect x="15" y="14.5" width="3" height="6.18182" fill="#FFDA27"/>
<rect x="20" y="10" width="3" height="11" fill="white"/>
<rect x="25" y="14" width="3" height="7" fill="#C8F0FE"/>
<rect x="10" y="21.4546" width="21" height="1.54545" fill="white"/>
</svg>
